<svg width="167" height="16" viewBox="0 0 167 16" fill="none" xmlns="http://www.w3.org/2000/svg">
<path d="M8.84 0.719999C10.44 0.719999 11.8267 1.02 13 1.62C14.1867 2.20667 15.1 3.04 15.74 4.12C16.3933 5.2 16.72 6.49333 16.72 8C16.72 9.49333 16.3933 10.7867 15.74 11.88C15.1 12.96 14.1867 13.8 13 14.4C11.8267 14.9867 10.44 15.28 8.84 15.28C7.24 15.28 5.84667 14.9867 4.66 14.4C3.48667 13.8 2.58 12.96 1.94 11.88C1.3 10.8 0.98 9.50667 0.98 8C0.98 6.50667 1.3 5.22 1.94 4.14C2.58 3.04667 3.48667 2.20667 4.66 1.62C5.84667 1.02 7.24 0.719999 8.84 0.719999ZM8.84 14.44C9.78667 14.44 10.6 14.18 11.28 13.66C11.96 13.1267 12.4867 12.38 12.86 11.42C13.2333 10.46 13.42 9.32 13.42 8C13.42 6.68 13.2333 5.54 12.86 4.58C12.4867 3.62 11.96 2.88 11.28 2.36C10.6 1.82667 9.78667 1.56 8.84 1.56C7.90667 1.56 7.09333 1.82667 6.4 2.36C5.72 2.88 5.19333 3.62 4.82 4.58C4.44667 5.54 4.26 6.68 4.26 8C4.26 9.32 4.44667 10.46 4.82 11.42C5.19333 12.38 5.72 13.1267 6.4 13.66C7.09333 14.18 7.90667 14.44 8.84 14.44ZM22.1461 3V15H19.2661V3H22.1461ZM26.8061 14.2L27.2861 15H22.1061V14.2H26.8061ZM28.1261 11.32L27.3461 15H23.8861L24.5061 14.2C25.0794 14.2 25.5861 14.0867 26.0261 13.86C26.4794 13.62 26.8661 13.2867 27.1861 12.86C27.5061 12.42 27.7528 11.9067 27.9261 11.32H28.1261ZM19.3061 13.74L19.4061 15H17.9261V14.8C17.9261 14.8 17.9661 14.8 18.0461 14.8C18.1261 14.8 18.1728 14.8 18.1861 14.8C18.4794 14.8 18.7261 14.7 18.9261 14.5C19.1394 14.2867 19.2528 14.0333 19.2661 13.74H19.3061ZM22.1061 4.26V3H23.4861V3.2C23.4728 3.2 23.4261 3.2 23.3461 3.2C23.2794 3.2 23.2461 3.2 23.2461 3.2C22.9528 3.2 22.6994 3.3 22.4861 3.5C22.2728 3.7 22.1594 3.95333 22.1461 4.26H22.1061ZM19.3061 4.26H19.2661C19.2528 3.95333 19.1394 3.7 18.9261 3.5C18.7128 3.3 18.4594 3.2 18.1661 3.2C18.1528 3.2 18.1061 3.2 18.0261 3.2C17.9594 3.2 17.9261 3.2 17.9261 3.2V3H19.3061V4.26ZM34.9738 2.46L40.8938 14.9H37.5138L33.7938 6.12L34.9738 2.46ZM31.2138 13.68C31.0671 14.04 31.0871 14.32 31.2738 14.52C31.4604 14.7067 31.6671 14.8 31.8938 14.8H32.0538V15H28.0537V14.8C28.0537 14.8 28.0804 14.8 28.1337 14.8C28.1871 14.8 28.2137 14.8 28.2137 14.8C28.4804 14.8 28.7604 14.72 29.0538 14.56C29.3471 14.3867 29.5871 14.0933 29.7738 13.68H31.2138ZM34.9738 2.46L35.0138 4.86L30.6738 14.94H29.1938L33.8737 4.88C33.9004 4.8 33.9604 4.66 34.0538 4.46C34.1471 4.24667 34.2471 4.01333 34.3538 3.76C34.4604 3.49333 34.5604 3.24667 34.6538 3.02C34.7471 2.78 34.8004 2.59333 34.8138 2.46H34.9738ZM36.7138 11.08V11.86H31.6138V11.08H36.7138ZM37.0138 13.68H40.3138C40.5138 14.0933 40.7604 14.3867 41.0538 14.56C41.3471 14.72 41.6271 14.8 41.8938 14.8C41.8938 14.8 41.9204 14.8 41.9738 14.8C42.0271 14.8 42.0538 14.8 42.0538 14.8V15H36.1738V14.8H36.3338C36.5604 14.8 36.7671 14.7067 36.9538 14.52C37.1404 14.32 37.1604 14.04 37.0138 13.68ZM46.4592 2.74C46.7259 2.74 47.0459 2.75333 47.4192 2.78C47.8059 2.80667 48.1859 2.84 48.5592 2.88C48.9326 2.90667 49.2592 2.94667 49.5392 3C49.8326 3.04 50.0326 3.08 50.1392 3.12L49.8792 5.56H49.6992C49.6992 4.94667 49.4859 4.46 49.0592 4.1C48.6326 3.74 48.0192 3.56 47.2192 3.56C46.5792 3.56 46.0592 3.7 45.6592 3.98C45.2726 4.26 45.0659 4.63333 45.0392 5.1C45.0126 5.34 45.0526 5.56 45.1592 5.76C45.2792 5.94667 45.4392 6.11333 45.6392 6.26C45.8526 6.40667 46.0859 6.55333 46.3392 6.7L49.4792 8.64C50.0126 8.90667 50.4326 9.29333 50.7392 9.8C51.0459 10.3067 51.1792 10.92 51.1392 11.64C51.0992 12.3867 50.8792 13.0333 50.4792 13.58C50.0926 14.1267 49.5526 14.5467 48.8592 14.84C48.1792 15.12 47.3726 15.26 46.4392 15.26C45.8659 15.26 45.3326 15.2133 44.8392 15.12C44.3459 15.0267 43.9192 14.9 43.5592 14.74C43.2126 14.58 42.9459 14.4 42.7592 14.2C42.6526 13.9333 42.6059 13.6133 42.6192 13.24C42.6326 12.8533 42.6926 12.4733 42.7992 12.1C42.9059 11.7133 43.0392 11.3933 43.1992 11.14H43.3592C43.3192 11.74 43.4259 12.2933 43.6792 12.8C43.9459 13.3067 44.3326 13.7133 44.8392 14.02C45.3459 14.3133 45.9526 14.46 46.6592 14.46C47.4326 14.46 48.0126 14.28 48.3992 13.92C48.7859 13.56 48.9792 13.14 48.9792 12.66C48.9792 12.3 48.8592 11.98 48.6192 11.7C48.3926 11.4067 48.0126 11.12 47.4792 10.84L44.6392 9.04C43.9726 8.69333 43.4859 8.23333 43.1792 7.66C42.8859 7.08667 42.7792 6.46 42.8592 5.78C42.9259 5.14 43.1126 4.59333 43.4192 4.14C43.7392 3.68667 44.1592 3.34 44.6792 3.1C45.1992 2.86 45.7926 2.74 46.4592 2.74ZM50.1392 2.92L50.1192 3.28H47.9792V2.92H50.1392ZM56.5536 3V10.54C56.5536 11.7667 56.8336 12.7267 57.3936 13.42C57.9669 14.1133 58.7603 14.46 59.7736 14.46C60.8269 14.46 61.6403 14.1333 62.2136 13.48C62.8003 12.8267 63.1003 11.92 63.1136 10.76V3H64.4336V10.64C64.4336 12.0667 63.9936 13.1933 63.1136 14.02C62.2469 14.8467 61.0136 15.26 59.4136 15.26C57.4803 15.26 56.0403 14.8533 55.0936 14.04C54.1469 13.2133 53.6736 12.0867 53.6736 10.66V3H56.5536ZM53.7136 3V4.04H53.6736C53.6603 3.78667 53.5669 3.58 53.3936 3.42C53.2203 3.26 53.0069 3.18 52.7536 3.18C52.7536 3.18 52.7069 3.18 52.6136 3.18C52.5203 3.18 52.4736 3.18 52.4736 3.18V3H53.7136ZM57.7336 3V3.18C57.7336 3.18 57.6869 3.18 57.5936 3.18C57.5003 3.18 57.4536 3.18 57.4536 3.18C57.2003 3.18 56.9869 3.26 56.8136 3.42C56.6403 3.58 56.5536 3.78667 56.5536 4.04H56.5136V3H57.7336ZM63.1536 3V4.04H63.1136C63.1003 3.78667 63.0069 3.58 62.8336 3.42C62.6603 3.26 62.4536 3.18 62.2136 3.18C62.2136 3.18 62.1669 3.18 62.0736 3.18C61.9803 3.18 61.9336 3.18 61.9336 3.18V3H63.1536ZM65.6136 3V3.18C65.6136 3.18 65.5669 3.18 65.4736 3.18C65.3936 3.18 65.3536 3.18 65.3536 3.18C65.1003 3.18 64.8803 3.26 64.6936 3.42C64.5203 3.58 64.4336 3.78667 64.4336 4.04H64.3936V3H65.6136ZM67.738 2.72L79.478 13.04L79.678 15.26L67.958 4.94L67.738 2.72ZM67.818 13.78V15H66.338V14.8C66.338 14.8 66.3913 14.8 66.498 14.8C66.6046 14.8 66.658 14.8 66.658 14.8C66.9646 14.8 67.2246 14.7067 67.438 14.52C67.6513 14.32 67.758 14.0733 67.758 13.78H67.818ZM70.498 13.78C70.5113 14.0733 70.6246 14.32 70.838 14.52C71.0513 14.7067 71.3046 14.8 71.598 14.8C71.598 14.8 71.6513 14.8 71.758 14.8C71.878 14.8 71.938 14.8 71.938 14.8V15H70.458V13.78H70.498ZM67.738 2.72L70.498 5.72V15H67.758V5C67.758 4.32 67.7246 3.77333 67.658 3.36C67.5913 2.93333 67.558 2.72 67.558 2.72H67.738ZM79.658 3V12.92C79.658 13.3867 79.6713 13.8 79.698 14.16C79.738 14.5067 79.7713 14.78 79.798 14.98C79.838 15.1667 79.858 15.26 79.858 15.26H79.678L76.918 12.08V3H79.658ZM79.598 4.22V3H81.098V3.2C81.098 3.2 81.038 3.2 80.918 3.2C80.8113 3.2 80.758 3.2 80.758 3.2C80.4646 3.2 80.2046 3.3 79.978 3.5C79.7646 3.68667 79.658 3.92667 79.658 4.22H79.598ZM76.918 4.22C76.9046 3.92667 76.7913 3.68667 76.578 3.5C76.378 3.3 76.1246 3.2 75.818 3.2C75.818 3.2 75.758 3.2 75.638 3.2C75.5313 3.2 75.478 3.2 75.478 3.2V3H76.958V4.22H76.918ZM89.1439 7.44L93.6239 13.66C93.8772 14.0333 94.1439 14.32 94.4239 14.52C94.7039 14.7067 95.0306 14.8067 95.4039 14.82V15H93.8639C93.7306 15 93.5106 14.9933 93.2039 14.98C92.8972 14.9667 92.5439 14.92 92.1439 14.84C91.7572 14.7467 91.3639 14.5933 90.9639 14.38C90.5639 14.1667 90.2106 13.86 89.9039 13.46C89.8372 13.3667 89.7239 13.2067 89.5639 12.98C89.4039 12.7533 89.2106 12.4867 88.9839 12.18C88.7706 11.8733 88.5439 11.56 88.3039 11.24C88.0772 10.92 87.8639 10.62 87.6639 10.34C87.4639 10.06 87.3039 9.83333 87.1839 9.66C87.0639 9.48667 87.0039 9.4 87.0039 9.4L89.1439 7.44ZM93.3839 3.12L88.1639 9.28L87.0039 9.4L91.7439 3.12H93.3839ZM94.6239 2.98V3.18H94.5439C94.1572 3.18 93.7972 3.25333 93.4639 3.4C93.1306 3.54667 92.8572 3.74667 92.6439 4L91.1039 3.96C91.2506 3.77333 91.2772 3.6 91.1839 3.44C91.0906 3.26667 90.9306 3.18 90.7039 3.18H90.5439V2.98H94.5439H94.6239ZM86.4239 2.98V15H83.5439V2.98H86.4239ZM83.5839 13.74V15H82.2239V14.8C82.2239 14.8 82.2506 14.8 82.3039 14.8C82.3706 14.8 82.4106 14.8 82.4239 14.8C82.7306 14.8 82.9906 14.7 83.2039 14.5C83.4172 14.2867 83.5306 14.0333 83.5439 13.74H83.5839ZM86.3639 13.74H86.4239C86.4239 14.0333 86.5306 14.2867 86.7439 14.5C86.9572 14.7 87.2172 14.8 87.5239 14.8C87.5372 14.8 87.5772 14.8 87.6439 14.8C87.7106 14.8 87.7439 14.8 87.7439 14.8V15H86.3639V13.74ZM86.3639 4.26V2.98H87.7439V3.18C87.7306 3.18 87.6906 3.18 87.6239 3.18C87.5706 3.18 87.5372 3.18 87.5239 3.18C87.2172 3.18 86.9572 3.28667 86.7439 3.5C86.5306 3.7 86.4239 3.95333 86.4239 4.26H86.3639ZM83.5839 4.26H83.5439C83.5306 3.95333 83.4172 3.7 83.2039 3.5C82.9906 3.28667 82.7306 3.18 82.4239 3.18C82.4239 3.18 82.3906 3.18 82.3239 3.18C82.2572 3.18 82.2172 3.18 82.2039 3.18V2.98H83.5839V4.26ZM101.341 2.46L107.261 14.9H103.881L100.161 6.12L101.341 2.46ZM97.5809 13.68C97.4343 14.04 97.4543 14.32 97.6409 14.52C97.8276 14.7067 98.0343 14.8 98.2609 14.8H98.4209V15H94.4209V14.8C94.4209 14.8 94.4476 14.8 94.5009 14.8C94.5543 14.8 94.5809 14.8 94.5809 14.8C94.8476 14.8 95.1276 14.72 95.4209 14.56C95.7143 14.3867 95.9543 14.0933 96.1409 13.68H97.5809ZM101.341 2.46L101.381 4.86L97.0409 14.94H95.5609L100.241 4.88C100.268 4.8 100.328 4.66 100.421 4.46C100.514 4.24667 100.614 4.01333 100.721 3.76C100.828 3.49333 100.928 3.24667 101.021 3.02C101.114 2.78 101.168 2.59333 101.181 2.46H101.341ZM103.081 11.08V11.86H97.9809V11.08H103.081ZM103.381 13.68H106.681C106.881 14.0933 107.128 14.3867 107.421 14.56C107.714 14.72 107.994 14.8 108.261 14.8C108.261 14.8 108.288 14.8 108.341 14.8C108.394 14.8 108.421 14.8 108.421 14.8V15H102.541V14.8H102.701C102.928 14.8 103.134 14.7067 103.321 14.52C103.508 14.32 103.528 14.04 103.381 13.68ZM109.652 2.72L121.392 13.04L121.592 15.26L109.872 4.94L109.652 2.72ZM109.732 13.78V15H108.252V14.8C108.252 14.8 108.305 14.8 108.412 14.8C108.519 14.8 108.572 14.8 108.572 14.8C108.879 14.8 109.139 14.7067 109.352 14.52C109.565 14.32 109.672 14.0733 109.672 13.78H109.732ZM112.412 13.78C112.425 14.0733 112.539 14.32 112.752 14.52C112.965 14.7067 113.219 14.8 113.512 14.8C113.512 14.8 113.565 14.8 113.672 14.8C113.792 14.8 113.852 14.8 113.852 14.8V15H112.372V13.78H112.412ZM109.652 2.72L112.412 5.72V15H109.672V5C109.672 4.32 109.639 3.77333 109.572 3.36C109.505 2.93333 109.472 2.72 109.472 2.72H109.652ZM121.572 3V12.92C121.572 13.3867 121.585 13.8 121.612 14.16C121.652 14.5067 121.685 14.78 121.712 14.98C121.752 15.1667 121.772 15.26 121.772 15.26H121.592L118.832 12.08V3H121.572ZM121.512 4.22V3H123.012V3.2C123.012 3.2 122.952 3.2 122.832 3.2C122.725 3.2 122.672 3.2 122.672 3.2C122.379 3.2 122.119 3.3 121.892 3.5C121.679 3.68667 121.572 3.92667 121.572 4.22H121.512ZM118.832 4.22C118.819 3.92667 118.705 3.68667 118.492 3.5C118.292 3.3 118.039 3.2 117.732 3.2C117.732 3.2 117.672 3.2 117.552 3.2C117.445 3.2 117.392 3.2 117.392 3.2V3H118.872V4.22H118.832ZM137.518 2.74L137.678 4.8L132.298 13.34C132.298 13.34 132.238 13.4533 132.118 13.68C131.998 13.8933 131.878 14.1533 131.758 14.46C131.651 14.7667 131.591 15.0733 131.578 15.38H131.398L130.618 13.74L137.518 2.74ZM125.218 13.72V15H123.258V14.8C123.258 14.8 123.305 14.8 123.398 14.8C123.478 14.8 123.518 14.8 123.518 14.8C123.851 14.8 124.138 14.7067 124.378 14.52C124.631 14.3333 124.785 14.0667 124.838 13.72H125.218ZM126.078 14C126.065 14.1467 126.111 14.32 126.218 14.52C126.325 14.7067 126.511 14.8 126.778 14.8H127.058V15H125.858L125.978 14H126.078ZM126.398 2.74H126.558L127.238 4.66L125.978 15H124.678L126.398 2.74ZM126.558 2.74L132.478 11.6L131.398 15.38L126.078 7.32L126.558 2.74ZM137.698 2.74L139.458 15H136.398L135.418 7.7L137.518 2.74H137.698ZM138.898 13.72H139.278C139.345 14.0667 139.498 14.3333 139.738 14.52C139.991 14.7067 140.271 14.8 140.578 14.8C140.578 14.8 140.625 14.8 140.718 14.8C140.811 14.8 140.858 14.8 140.858 14.8V15H138.898V13.72ZM136.258 14H136.378L136.498 15H135.298V14.8H135.578C135.871 14.8 136.065 14.7067 136.158 14.52C136.251 14.32 136.285 14.1467 136.258 14ZM145.644 3V15H142.764V3H145.644ZM142.824 13.74V15H141.364V14.8C141.364 14.8 141.404 14.8 141.484 14.8C141.564 14.8 141.61 14.8 141.624 14.8C141.93 14.8 142.197 14.7 142.424 14.5C142.65 14.2867 142.764 14.0333 142.764 13.74H142.824ZM145.604 13.74H145.644C145.657 14.0333 145.77 14.2867 145.984 14.5C146.21 14.7 146.484 14.8 146.804 14.8C146.804 14.8 146.837 14.8 146.904 14.8C146.984 14.8 147.03 14.8 147.044 14.8V15H145.604V13.74ZM145.604 4.26V3H147.044L147.024 3.2C147.024 3.2 146.99 3.2 146.924 3.2C146.857 3.2 146.817 3.2 146.804 3.2C146.484 3.2 146.21 3.3 145.984 3.5C145.77 3.7 145.657 3.95333 145.644 4.26H145.604ZM142.824 4.26H142.764C142.764 3.95333 142.65 3.7 142.424 3.5C142.197 3.3 141.924 3.2 141.604 3.2C141.604 3.2 141.564 3.2 141.484 3.2C141.404 3.2 141.364 3.2 141.364 3.2V3H142.824V4.26ZM149.622 15.2C149.222 15.2 148.882 15.06 148.602 14.78C148.322 14.5 148.182 14.16 148.182 13.76C148.182 13.3467 148.322 13 148.602 12.72C148.882 12.44 149.222 12.3 149.622 12.3C150.036 12.3 150.382 12.44 150.662 12.72C150.942 13 151.082 13.3467 151.082 13.76C151.082 14.16 150.942 14.5 150.662 14.78C150.382 15.06 150.036 15.2 149.622 15.2ZM158.916 0.599999L165.456 14.88H161.856L157.696 4.46L158.916 0.599999ZM154.616 13.54C154.509 13.8067 154.489 14.0333 154.556 14.22C154.623 14.4067 154.736 14.5533 154.896 14.66C155.056 14.7533 155.216 14.8 155.376 14.8H155.556V15H151.276V14.8C151.276 14.8 151.309 14.8 151.376 14.8C151.429 14.8 151.456 14.8 151.456 14.8C151.763 14.8 152.076 14.7067 152.396 14.52C152.729 14.32 153.003 13.9933 153.216 13.54H154.616ZM158.916 0.599999L158.996 3.04L154.036 14.94H152.576L157.756 3.22C157.796 3.14 157.863 2.99333 157.956 2.78C158.063 2.55333 158.169 2.3 158.276 2.02C158.396 1.74 158.503 1.47333 158.596 1.22C158.689 0.953333 158.736 0.746666 158.736 0.599999H158.916ZM161.016 10.24V11.08H155.136V10.24H161.016ZM161.316 13.54H164.816C165.043 13.9933 165.316 14.32 165.636 14.52C165.956 14.7067 166.269 14.8 166.576 14.8C166.576 14.8 166.603 14.8 166.656 14.8C166.709 14.8 166.736 14.8 166.736 14.8V15H160.376V14.8H160.556C160.823 14.8 161.056 14.6933 161.256 14.48C161.456 14.2533 161.476 13.94 161.316 13.54Z" fill="black"/>
</svg>
